<svg xmlns="http://www.w3.org/2000/svg" version="1.1" xmlns:xlink="http://www.w3.org/1999/xlink" xmlns:svgjs="http://svgjs.dev/svgjs" width="1000" height="209" viewBox="0 0 1000 209"><g transform="matrix(1,0,0,1,-0.606047022815801,0.5366547030562714)"><svg viewBox="0 0 396 83" data-background-color="#ffffff" preserveAspectRatio="xMidYMid meet" height="209" width="1000" xmlns="http://www.w3.org/2000/svg" xmlns:xlink="http://www.w3.org/1999/xlink"><g id="tight-bounds" transform="matrix(1,0,0,1,0.2399946210350663,-0.2131202378150192)"><svg viewBox="0 0 395.52 83.42624148352638" height="83.42624148352638" width="395.52"><g><svg viewBox="0 0 533.7357627833974 112.57981551972559" height="83.42624148352638" width="395.52"><g transform="matrix(1,0,0,1,138.2157627833974,1.9822302298456336)"><svg viewBox="0 0 395.52 108.61535506003432" height="108.61535506003432" width="395.52"><g id="textblocktransform"><svg viewBox="0 0 395.52 108.61535506003432" height="108.61535506003432" width="395.52" id="textblock"><g><svg viewBox="0 0 395.52 108.61535506003432" height="108.61535506003432" width="395.52"><g transform="matrix(1,0,0,1,0,0)"><svg width="395.52" viewBox="1.4500000476837158 -54.400001525878906 298.0199890136719 80.05000305175781" height="108.61535506003432" data-palette-color="#010c80"><g class="wordmark-text-0" data-fill-palette-color="primary" id="text-0"><path d="M10.45 0.6Q7.55 0.6 4.75-0.25 1.95-1.1 1.45-2.1L1.45-2.1Q1.7-3.3 1.9-5.38 2.1-7.45 2.1-8.55L2.1-8.55Q2.5-8.9 3.25-8.9L3.25-8.9Q3.25-6.05 3.88-4.45 4.5-2.85 5.95-2.13 7.4-1.4 10.05-1.4L10.05-1.4Q14.75-1.4 17.88-3.38 21-5.35 21-9L21-9Q21-10.9 19.9-12.78 18.8-14.65 16-17.25L16-17.25 14.65-18.5Q12.05-20.85 10.83-22.58 9.6-24.3 9.6-26.75L9.6-26.75Q9.6-29.15 10.83-31.13 12.05-33.1 14.33-34.23 16.6-35.35 19.55-35.35L19.55-35.35Q22.45-35.35 24.5-34.35 26.55-33.35 27.15-32L27.15-32Q27.15-30.5 26.7-28.55 26.25-26.6 26.15-26.25L26.15-26.25Q25.5-26.25 24.9-26.45L24.9-26.45 25.05-27.45Q25.15-28.35 25.15-28.9L25.15-28.9Q25.15-31.2 23.93-32.23 22.7-33.25 20.1-33.25L20.1-33.25Q16.45-33.25 14.28-31.6 12.1-29.95 12.1-27.3L12.1-27.3Q12.1-25.25 13.4-23.58 14.7-21.9 17.4-19.5L17.4-19.5 18.45-18.55Q21.65-15.65 22.83-13.85 24-12.05 24-9.7L24-9.7Q24-6.3 21.93-3.98 19.85-1.65 16.73-0.53 13.6 0.6 10.45 0.6L10.45 0.6ZM50.35-8.3Q50.6-7.95 50.6-7.45L50.6-7.45Q50.6-7.05 50.45-6.75 50.3-6.45 49.95-6L49.95-6Q48.65-4.45 46.32-2.93 44-1.4 41.45-0.45 38.9 0.5 37 0.5L37 0.5Q34.85 0.5 33.42-0.83 32-2.15 32-4.8L32-4.8Q32-8.15 34.4-17.4L34.4-17.4 29.1-17.2Q29-17.25 28.82-17.38 28.65-17.5 28.6-17.6L28.6-17.6Q28.75-17.85 29.15-18.6 29.55-19.35 29.85-19.65L29.85-19.65 35-19.6Q36.65-25.7 38.8-32.15L38.8-32.15Q39.7-32.85 41.1-33.68 42.5-34.5 42.8-34.5L42.8-34.5Q43.25-34.3 43.35-33.95L43.35-33.95Q42.45-33.6 41.95-33.02 41.45-32.45 40.95-31.15L40.95-31.15Q39.5-27.45 37.45-19.6L37.45-19.6 50.2-19.55 50.25-18.75Q50.25-18.35 50.1-18.2 49.95-18.05 49.4-18L49.4-18Q48.7-17.95 36.9-17.5L36.9-17.5Q34.6-8.1 34.6-4.95L34.6-4.95Q34.6-3.2 35.45-2.38 36.3-1.55 38.05-1.55L38.05-1.55Q43.15-1.55 50.35-8.3L50.35-8.3ZM63.59-20.9Q64.25-20.9 65.07-20.38 65.9-19.85 66.09-19.2L66.09-19.2Q65.5-17.2 64.95-15L64.95-15Q64.7-14.15 63.9-11.28 63.09-8.4 61.8-4.25L61.8-4.25Q58.9 4.9 56.07 11.03 53.25 17.15 48.35 21.4 43.45 25.65 36.15 25.65L36.15 25.65Q32.5 25.65 30.05 24.55 27.6 23.45 26.42 21.7 25.25 19.95 25.25 17.85L25.25 17.85Q25.25 17.15 25.4 16.78 25.55 16.4 25.65 16.1L25.65 16.1Q27.2 19.25 29.77 20.88 32.34 22.5 36.59 22.5L36.59 22.5Q42.3 22.5 46.45 19.58 50.6 16.65 53.6 11.03 56.6 5.4 59-3.3L59-3.3Q57.5-1.95 55.57-0.98 53.65 0 52.4 0L52.4 0Q51.45 0 50.57-0.6 49.7-1.2 49.12-2.13 48.55-3.05 48.55-3.85L48.55-3.85Q49.9-10 51.1-15.1L51.1-15.1Q51.7-17.8 52.05-19.3L52.05-19.3Q52.25-20.1 52.6-20.4 52.95-20.7 53.7-20.7L53.7-20.7Q54.35-20.7 55-20.45L55-20.45 51.2-4.45Q51.2-3.7 51.82-3.05 52.45-2.4 53.2-2.4L53.2-2.4Q54.3-2.4 56.6-3.85 58.9-5.3 59.7-6.35L59.7-6.35Q60.8-9.05 61.5-11.75 62.2-14.45 63.09-18.6L63.09-18.6 63.59-20.9ZM92.04-14Q92.54-14 92.84-13.53 93.14-13.05 93.14-12.35L93.14-12.35Q93.14-11.45 92.64-10.45L92.64-10.45Q91.24-7.5 88.64-5.03 86.04-2.55 83.02-1.1 79.99 0.35 77.39 0.35L77.39 0.35Q72.09 0.35 72.09-5.8L72.09-5.8Q72.09-10.1 74.44-19.63 76.79-29.15 81.24-44.9L81.24-44.9Q82.19-48.15 83.32-49.7 84.44-51.25 85.89-51.25L85.89-51.25Q86.94-51.25 87.92-50.53 88.89-49.8 89.54-48.3 90.19-46.8 90.19-44.6L90.19-44.6Q90.19-41.05 88.52-35.6 86.84-30.15 83.49-24.1 80.14-18.05 75.44-12.9L75.44-12.9Q74.59-8.5 74.59-6.35L74.59-6.35Q74.59-3.95 75.57-2.93 76.54-1.9 78.29-1.9L78.29-1.9Q80.74-1.9 83.52-3.55 86.29-5.2 88.59-8 90.89-10.8 92.04-14L92.04-14ZM82.54-41.75Q78.34-26.65 76.19-16.7L76.19-16.7Q79.89-21.35 82.57-26.85 85.24-32.35 86.57-37.15 87.89-41.95 87.89-44.7L87.89-44.7Q87.89-46.25 87.44-47.38 86.99-48.5 85.94-48.5L85.94-48.5Q85.34-48.5 84.52-47.25 83.69-46 82.54-41.75L82.54-41.75ZM110.94-11.95Q111.84-11.8 111.84-10.95L111.84-10.95Q111.84-8.95 109.27-6.28 106.69-3.6 103.19-1.68 99.69 0.25 97.34 0.25L97.34 0.25Q95.09 0.25 93.44-0.93 91.79-2.1 90.92-3.55 90.04-5 90.04-5.7L90.04-5.7Q90.84-8.55 91.79-13.6L91.79-13.6 92.34-16.4Q92.54-17.4 93.79-18.48 95.04-19.55 96.59-20.28 98.14-21 99.09-21L99.09-21Q99.84-21 100.92-20.53 101.99-20.05 102.81-19.05 103.64-18.05 103.64-16.5L103.64-16.5Q103.64-14.7 102.44-13.1 101.24-11.5 98.89-10.5 96.54-9.5 93.24-9.5L93.24-9.5 92.54-6.15Q92.54-5.7 93.06-4.65 93.59-3.6 94.77-2.75 95.94-1.9 97.74-1.9L97.74-1.9Q100.14-1.9 102.79-3.48 105.44-5.05 107.64-7.4 109.84-9.75 110.94-11.95L110.94-11.95ZM98.69-18.95Q98.09-18.95 97.14-18.45 96.19-17.95 95.42-17.2 94.64-16.45 94.49-15.8L94.49-15.8Q93.99-13.55 93.59-11.25L93.59-11.25Q97.44-11.4 99.39-12.78 101.34-14.15 101.34-15.9L101.34-15.9Q101.34-17.15 100.44-18.05 99.54-18.95 98.69-18.95L98.69-18.95Z" fill="#010c80" data-fill-palette-color="primary"></path><path d="M164.69-5.45Q164.89-4.95 164.89-4.5L164.89-4.5Q164.89-3.35 163.84-2.23 162.79-1.1 161.31-0.4 159.84 0.3 158.69 0.3L158.69 0.3Q156.09 0.3 154.91-2.88 153.74-6.05 153.09-10.6L153.09-10.6Q152.94-11.65 152.54-11.98 152.14-12.3 151.09-12.3L151.09-12.3 144.19-12.25Q142.69-12.25 140.49-12.35L140.49-12.35 139.89-11.4Q137.29-7.2 135.56-4.88 133.84-2.55 131.69-1 129.54 0.55 126.89 0.55L126.89 0.55Q125.04 0.55 123.86-0.15 122.69-0.85 122.14-1.85 121.59-2.85 121.59-3.75L121.59-3.75Q121.59-4.7 122.09-5.48 122.59-6.25 123.24-6.6L123.24-6.6Q123.24-4.45 124.26-3.13 125.29-1.8 127.24-1.8L127.24-1.8Q129.94-1.8 132.39-4.42 134.84-7.05 138.24-12.55L138.24-12.55Q135.59-12.85 135.44-13.55L135.44-13.55Q135.34-13.8 135.56-14.4 135.79-15 136.09-15.3L136.09-15.3Q136.84-15 139.54-14.65L139.54-14.65Q140.14-15.7 141.14-17.3L141.14-17.3Q149.74-31.55 152.24-35.5L152.24-35.5Q152.79-36.4 153.29-36.7 153.79-37 154.39-37L154.39-37Q155.19-37 156.04-36.75L156.04-36.75Q154.99-34.9 154.89-30.5L154.89-30.5 154.84-28.05Q154.84-22.95 155.24-16.7L155.24-16.7Q155.69-9.6 156.61-5.98 157.54-2.35 159.69-2.35L159.69-2.35Q160.74-2.35 162.11-3.23 163.49-4.1 164.69-5.45L164.69-5.45ZM147.59-14.15Q148.94-14.15 152.69-14.3L152.69-14.3Q152.59-18 152.51-22.48 152.44-26.95 152.39-30.25L152.39-30.25 152.39-31.9Q146.64-22.25 141.79-14.4L141.79-14.4Q145.04-14.15 147.59-14.15L147.59-14.15ZM189.43-14Q189.93-14 190.24-13.53 190.54-13.05 190.54-12.35L190.54-12.35Q190.54-11.45 190.04-10.45L190.04-10.45Q188.64-7.5 186.04-5.03 183.43-2.55 180.41-1.1 177.39 0.35 174.79 0.35L174.79 0.35Q169.49 0.35 169.49-5.8L169.49-5.8Q169.49-10.1 171.84-19.63 174.19-29.15 178.64-44.9L178.64-44.9Q179.59-48.15 180.71-49.7 181.84-51.25 183.29-51.25L183.29-51.25Q184.34-51.25 185.31-50.53 186.29-49.8 186.93-48.3 187.59-46.8 187.59-44.6L187.59-44.6Q187.59-41.05 185.91-35.6 184.24-30.15 180.89-24.1 177.54-18.05 172.84-12.9L172.84-12.9Q171.99-8.5 171.99-6.35L171.99-6.35Q171.99-3.95 172.96-2.93 173.94-1.9 175.69-1.9L175.69-1.9Q178.14-1.9 180.91-3.55 183.68-5.2 185.99-8 188.29-10.8 189.43-14L189.43-14ZM179.93-41.75Q175.74-26.65 173.59-16.7L173.59-16.7Q177.29-21.35 179.96-26.85 182.64-32.35 183.96-37.15 185.29-41.95 185.29-44.7L185.29-44.7Q185.29-46.25 184.84-47.38 184.39-48.5 183.34-48.5L183.34-48.5Q182.74-48.5 181.91-47.25 181.09-46 179.93-41.75L179.93-41.75ZM194.83 0.25Q192.23 0.25 190.58-0.98 188.93-2.2 188.18-3.68 187.43-5.15 187.43-5.7L187.43-5.7Q188.93-11.35 190.03-16.9L190.03-16.9Q190.23-17.9 191.31-18.78 192.38-19.65 193.81-20.2 195.23-20.75 196.33-20.75L196.33-20.75Q197.43-20.75 198.61-20.2 199.78-19.65 200.58-18.8 201.38-17.95 201.38-17L201.38-17Q201.38-15.6 200.03-14.55L200.03-14.55 199.78-14.6Q199.68-16.25 198.61-17.43 197.53-18.6 196.18-18.6L196.18-18.6Q195.03-18.6 193.68-17.82 192.33-17.05 192.13-16.05L192.13-16.05Q191.33-11.85 190.88-9.8L190.88-9.8 190.08-6.05Q190.08-5.4 190.66-4.42 191.23-3.45 192.38-2.73 193.53-2 195.23-2L195.23-2Q197.03-2 199.51-2.88 201.98-3.75 204.48-6.03 206.98-8.3 208.53-12.1L208.53-12.1Q209.03-12.1 209.18-11.75 209.33-11.4 209.33-10.8L209.33-10.8Q209.33-8.5 207.01-5.9 204.68-3.3 201.26-1.53 197.83 0.25 194.83 0.25L194.83 0.25ZM232.93-54.4Q237.23-54.4 239.73-52.03 242.23-49.65 242.23-45.35L242.23-45.35 241.88-44.75Q240.78-48.15 238.43-49.78 236.08-51.4 232.78-51.4L232.78-51.4Q225.83-51.4 220.98-43.58 216.13-35.75 212.58-21L212.58-21 211.28-15.35 210.63-12.45Q212.68-15.35 215.83-18.07 218.98-20.8 220.58-20.8L220.58-20.8Q220.98-20.8 221.76-20.05 222.53-19.3 222.53-18.95L222.53-18.95Q221.58-16.2 220.28-10.9 218.98-5.6 218.98-4.15L218.98-4.15Q218.98-2.75 219.43-2.13 219.88-1.5 221.28-1.5L221.28-1.5Q223.78-1.5 226.13-3.4 228.48-5.3 230.21-7.73 231.93-10.15 232.83-12L232.83-12Q233.18-11.9 233.38-11.65 233.58-11.4 233.63-10.9L233.63-10.9 233.63-10.75Q233.63-10.15 233.23-9.35L233.23-9.35Q230.93-5.15 227.33-2.27 223.73 0.6 220.33 0.6L220.33 0.6Q218.58 0.6 217.53-0.5 216.48-1.6 216.48-3.6L216.48-3.6Q216.48-5.55 217.11-8.4 217.73-11.25 218.78-15.1L218.78-15.1Q218.73-14.85 219.33-17.15L219.33-17.15Q219.28-17.35 219.08-17.5 218.88-17.65 218.73-17.65L218.73-17.65Q218.23-17.65 216.38-16 214.53-14.35 212.63-12.05 210.73-9.75 209.78-7.75L209.78-7.75Q209.28-5.75 208.78-2.75L208.78-2.75Q208.73-2.4 208.68-2 208.63-1.6 208.53-1.2L208.53-1.2Q208.38-0.3 208.26 0.03 208.13 0.35 207.83 0.35L207.83 0.35Q207.23 0.35 206.48 0.05 205.73-0.25 205.73-0.7L205.73-0.7Q205.73-1.35 206.03-2.6L206.03-2.6 210.38-21.05Q214.03-36.65 219.68-45.53 225.33-54.4 232.93-54.4L232.93-54.4ZM251.63-11.95Q252.53-11.8 252.53-10.95L252.53-10.95Q252.53-8.95 249.95-6.28 247.38-3.6 243.88-1.68 240.38 0.25 238.03 0.25L238.03 0.25Q235.78 0.25 234.13-0.93 232.48-2.1 231.6-3.55 230.73-5 230.73-5.7L230.73-5.7Q231.53-8.55 232.48-13.6L232.48-13.6 233.03-16.4Q233.23-17.4 234.48-18.48 235.73-19.55 237.28-20.28 238.83-21 239.78-21L239.78-21Q240.53-21 241.6-20.53 242.68-20.05 243.5-19.05 244.33-18.05 244.33-16.5L244.33-16.5Q244.33-14.7 243.13-13.1 241.93-11.5 239.58-10.5 237.23-9.5 233.93-9.5L233.93-9.5 233.23-6.15Q233.23-5.7 233.75-4.65 234.28-3.6 235.45-2.75 236.63-1.9 238.43-1.9L238.43-1.9Q240.83-1.9 243.48-3.48 246.13-5.05 248.33-7.4 250.53-9.75 251.63-11.95L251.63-11.95ZM239.38-18.95Q238.78-18.95 237.83-18.45 236.88-17.95 236.1-17.2 235.33-16.45 235.18-15.8L235.18-15.8Q234.68-13.55 234.28-11.25L234.28-11.25Q238.13-11.4 240.08-12.78 242.03-14.15 242.03-15.9L242.03-15.9Q242.03-17.15 241.13-18.05 240.23-18.95 239.38-18.95L239.38-18.95ZM284.68-11.55Q284.73-10 282.8-7.15 280.88-4.3 278.08-2.1 275.28 0.1 272.58 0.1L272.58 0.1Q270.68 0.1 269.45-1.13 268.23-2.35 268.23-4.85L268.23-4.85Q268.23-6.9 268.9-9.47 269.58-12.05 270.73-15.6L270.73-15.6Q271.08-16.55 271.38-17.6L271.38-17.6Q271.38-17.75 271.18-17.88 270.98-18 270.78-18L270.78-18Q270.13-18 268.2-16.13 266.28-14.25 264.3-11.83 262.33-9.4 261.68-8.15L261.68-8.15Q261.18-6.6 260.03-1.65L260.03-1.65Q259.83-0.8 259.7-0.5 259.58-0.2 259.28-0.2L259.28-0.2Q258.83-0.2 258.25-0.75 257.68-1.3 257.68-1.85L257.68-1.85Q257.68-2.4 258.18-4.25L258.18-4.25Q260.28-11.95 261.58-17.6L261.58-17.6Q261.28-18 260.83-18L260.83-18Q260.08-18 258.28-16.15 256.48-14.3 254.53-11.48 252.58-8.65 251.33-5.9L251.33-5.9Q250.58-3.45 249.98-0.25L249.98-0.25Q249.48-0.25 248.68-0.6 247.88-0.95 247.88-1.3L247.88-1.3Q247.88-1.7 248.38-3.55L248.38-3.55 252.63-20.1Q252.73-20.55 252.88-20.75 253.03-20.95 253.33-20.95L253.33-20.95Q253.63-20.95 254.35-20.65 255.08-20.35 255.28-20.15L255.28-20.15 254.83-18.55Q254.68-17.95 254.15-16.07 253.63-14.2 253.18-12.2L253.18-12.2Q254.73-14.9 256.4-16.68 258.08-18.45 259.48-19.28 260.88-20.1 261.63-20.1L261.63-20.1Q262.18-20.1 263.03-19.5 263.88-18.9 263.88-18.5L263.88-18.5Q263.43-15.75 262.58-12.3L262.58-12.3Q264.63-15.1 267.48-17.88 270.33-20.65 271.83-20.65L271.83-20.65Q272.53-20.65 273.33-20.1 274.13-19.55 274.18-18.8L274.18-18.8Q272.58-13.85 271.7-10.65 270.83-7.45 270.83-4.9L270.83-4.9Q270.83-3.4 271.33-2.73 271.83-2.05 273.13-2.05L273.13-2.05Q276.18-2.05 279.03-5.38 281.88-8.7 283.38-13.2L283.38-13.2Q283.93-13.2 284.3-12.7 284.68-12.2 284.68-11.55L284.68-11.55ZM296.97-20.9Q297.62-20.9 298.45-20.38 299.27-19.85 299.47-19.2L299.47-19.2Q298.87-17.2 298.32-15L298.32-15Q298.07-14.15 297.27-11.28 296.47-8.4 295.17-4.25L295.17-4.25Q292.27 4.9 289.45 11.03 286.62 17.15 281.72 21.4 276.82 25.65 269.52 25.65L269.52 25.65Q265.87 25.65 263.42 24.55 260.97 23.45 259.8 21.7 258.62 19.95 258.62 17.85L258.62 17.85Q258.62 17.15 258.77 16.78 258.92 16.4 259.02 16.1L259.02 16.1Q260.57 19.25 263.15 20.88 265.72 22.5 269.97 22.5L269.97 22.5Q275.67 22.5 279.82 19.58 283.97 16.65 286.97 11.03 289.97 5.4 292.37-3.3L292.37-3.3Q290.87-1.95 288.95-0.98 287.02 0 285.77 0L285.77 0Q284.82 0 283.95-0.6 283.07-1.2 282.5-2.13 281.92-3.05 281.92-3.85L281.92-3.85Q283.27-10 284.47-15.1L284.47-15.1Q285.07-17.8 285.42-19.3L285.42-19.3Q285.62-20.1 285.97-20.4 286.32-20.7 287.07-20.7L287.07-20.7Q287.72-20.7 288.37-20.45L288.37-20.45 284.57-4.45Q284.57-3.7 285.2-3.05 285.82-2.4 286.57-2.4L286.57-2.4Q287.67-2.4 289.97-3.85 292.27-5.3 293.07-6.35L293.07-6.35Q294.17-9.05 294.87-11.75 295.57-14.45 296.47-18.6L296.47-18.6 296.97-20.9Z" fill="#0080ff" data-fill-palette-color="secondary"></path></g></svg></g></svg></g></svg></g></svg></g><g><svg viewBox="0 0 112.57428422224473 112.57981551972559" height="112.57981551972559" width="112.57428422224473"><g><svg xmlns="http://www.w3.org/2000/svg" xmlns:xlink="http://www.w3.org/1999/xlink" version="1.1" x="0" y="0" viewBox="0.35833191871643066 0.3587193787097931 89.28327178955078 89.28765869140625" enable-background="new 0 0 90 90" xml:space="preserve" height="112.57981551972559" width="112.57428422224473" class="icon-icon-0" data-fill-palette-color="accent" id="icon-0"><polygon points="57.928,58.169 57.875,76.027 45.397,63.548 45.397,45.639 " fill="#0023ff" data-fill-palette-color="accent"></polygon><polygon points="76.027,57.875 58.475,57.927 45.826,45.279 63.432,45.279 " fill="#0023ff" data-fill-palette-color="accent"></polygon><polygon points="76.027,32.125 63.432,44.721 45.707,44.721 58.355,32.073 " fill="#0023ff" data-fill-palette-color="accent"></polygon><polygon points="44.838,45.59 44.838,63.314 32.125,76.027 32.074,58.355 " fill="#0023ff" data-fill-palette-color="accent"></polygon><polygon points="57.928,31.712 45.397,44.243 45.397,26.452 57.875,13.974 " fill="#0023ff" data-fill-palette-color="accent"></polygon><polygon points="44.838,26.687 44.838,44.291 32.074,31.526 32.125,13.974 " fill="#0023ff" data-fill-palette-color="accent"></polygon><polygon points="44.479,44.721 26.569,44.721 13.974,32.125 31.832,32.073 " fill="#0023ff" data-fill-palette-color="accent"></polygon><polygon points="44.36,45.279 31.712,57.927 13.974,57.875 26.569,45.279 " fill="#0023ff" data-fill-palette-color="accent"></polygon><rect x="58.48" y="58.48" width="18.049" height="18.049" fill="#0023ff" data-fill-palette-color="accent"></rect><polygon points="76.527,13.474 76.527,31.516 58.914,31.516 58.912,31.518 58.484,31.516 58.484,13.474 " fill="#0023ff" data-fill-palette-color="accent"></polygon><polygon points="31.518,30.971 31.516,31.516 13.474,31.516 13.474,13.474 31.516,13.474 31.516,30.968 " fill="#0023ff" data-fill-palette-color="accent"></polygon><rect x="13.471" y="58.48" width="18.05" height="18.049" fill="#0023ff" data-fill-palette-color="accent"></rect><rect x="67.864" y="35.981" transform="matrix(0.7071 -0.7071 0.7071 0.7071 -9.3022 67.5465)" width="18.042" height="18.042" fill="#0023ff" data-fill-palette-color="accent"></rect><rect x="35.979" y="4.094" transform="matrix(0.7071 -0.7071 0.7071 0.7071 3.9068 35.6621)" width="18.042" height="18.042" fill="#0023ff" data-fill-palette-color="accent"></rect><rect x="4.095" y="35.98" transform="matrix(0.7071 -0.7071 0.7071 0.7071 -27.9787 22.4536)" width="18.041" height="18.041" fill="#0023ff" data-fill-palette-color="accent"></rect><rect x="35.98" y="67.865" transform="matrix(0.7071 -0.7071 0.7071 0.7071 -41.1877 54.3437)" width="18.04" height="18.041" fill="#0023ff" data-fill-palette-color="accent"></rect></svg></g></svg></g></svg></g><defs></defs></svg><rect width="395.52" height="83.42624148352638" fill="none" stroke="none" visibility="hidden"></rect></g></svg></g></svg>